# xmcd CD database file generated by Grip 2.95
# 
# Track frame offsets:
#       150
#       16640
#       29440
#       43630
#       53053
#       69403
#       93513
#       109295
#       128403
#       148273
#       165140
#       187665
#       196283
#       215348
#       232810
#       249563
#       267710
#       276808
# 
# Disc length: 3977 seconds
# 
# Revision: 3
# Processed by: cddbd v1.4b41PL1 Copyright (c) Steve Scherf et al.
# Submitted via: Grip 2.95
# 
DISCID=f10f8712
DTITLE=Big Bill Broonzy - an evening with, vol 1
DYEAR=1900
DGENRE=
TTITLE0=When things go wrong
TTITLE1=Barrelhouse Shuffle
TTITLE2=Down by the riverside
TTITLE3=Swanee river
TTITLE4=Swing low, sweet chariot
TTITLE5=In the evening when the sun goes down
TTITLE6=Big Bill talks
TTITLE7=John Henry
TTITLE8=Just a dream
TTITLE9=Ananais (2)
TTITLE10=Louisiana Blues
TTITLE11=Somebody loves me
TTITLE12=Willie Mae blues
TTITLE13=The crawdad song
TTITLE14=The blue tail fly
TTITLE15=Black, brown and white
TTITLE16=Guitar blues
TTITLE17=Goodnight, Irene
EXTD=
EXTT0=
EXTT1=
EXTT2=
EXTT3=
EXTT4=
EXTT5=
EXTT6=
EXTT7=
EXTT8=
EXTT9=
EXTT10=
EXTT11=
EXTT12=
EXTT13=
EXTT14=
EXTT15=
EXTT16=
EXTT17=
PLAYORDER=
